<svg height="512" viewBox="0 0 64 64" width="512" xmlns="http://www.w3.org/2000/svg"><g id="Filled_outline" data-name="Filled outline"><path d="m47 61h-38v-58h46v50z" fill="#fef9e1"/><circle cx="32" cy="38" fill="#ffd782" r="11"/><path d="m13 7h38v16h-38z" fill="#cfdfe8"/><circle cx="16" cy="54" fill="#7fc99d" r="3"/><path d="m47 61v-8h8z" fill="#d3843d"/><g fill="#394d5c"><path d="m32 27c0 11 11 11 11 11a11 11 0 0 0 -11-11z"/><path d="m32 27a11 11 0 0 0 -11 11s11 0 11-11z"/><path d="m29 39h2v2h-2z"/><path d="m33 39h2v2h-2z"/><path d="m32 46c-4.573 0-6.559-3.112-6.97-4.758l1.938-.492c.032.133.913 3.25 5.032 3.25 4.171 0 5.022-3.21 5.03-3.242l1.94.484c-.411 1.646-2.397 4.758-6.97 4.758z"/></g><path d="m20 26h3v2h-3z" fill="#d3843d"/><path d="m12 34h4v2h-4z" fill="#2d75bb"/><path d="m41 26h11v2h-11z" fill="#2d75bb"/><path d="m45 30h7v2h-7z" fill="#2d75bb"/><path d="m46 34h6v2h-6z" fill="#2d75bb"/><path d="m22 56h21v2h-21z" fill="#d3843d"/><path d="m22 52h13v2h-13z" fill="#d3843d"/><path d="m37 52h4v2h-4z" fill="#d3843d"/><path d="m12 46h7v2h-7z" fill="#2d75bb"/><path d="m12 42h5v2h-5z" fill="#2d75bb"/><path d="m43 48h9v2h-9z" fill="#2d75bb"/><path d="m46 44h6v2h-6z" fill="#2d75bb"/><path d="m48 39h4v2h-4z" fill="#2d75bb"/><path d="m27 20h-2v-8h-.279l-1.772 5.316a1 1 0 0 1 -1.9 0l-1.77-5.316h-.279v8h-2v-9a1 1 0 0 1 1-1h2a1 1 0 0 1 .949.684l1.051 3.154 1.051-3.154a1 1 0 0 1 .949-.684h2a1 1 0 0 1 1 1z" fill="#e4544f"/><path d="m36.024 20.217-1.824-8.217h-1.4l-1.826 8.217-1.952-.434 2-9a1 1 0 0 1 .978-.783h3a1 1 0 0 1 .976.783l2 9z" fill="#f1997e"/><path d="m47 20h-6a1 1 0 0 1 -1-1v-8a1 1 0 0 1 1-1h7v2h-6v6h4v-2h-2v-2h3a1 1 0 0 1 1 1v4a1 1 0 0 1 -1 1z" fill="#e4544f"/><path d="m31 16h5v2h-5z" fill="#f1997e"/><path d="m13 27h4v4h-4z" fill="#7fc99d"/><path d="m12 38h4v2h-4z" fill="#2d75bb"/><path d="m56 53.414v-51.414h-48v60h39.414zm-8 5.172v-4.586h4.586zm-38-54.586h44v48h-7a1 1 0 0 0 -1 1v7h-36z"/><path d="m52 6h-40v18h40zm-2 16h-36v-14h36z"/><path d="m16 50a4 4 0 1 0 4 4 4 4 0 0 0 -4-4zm0 6a2 2 0 1 1 2-2 2 2 0 0 1 -2 2z"/><path d="m32 50a12 12 0 1 0 -12-12 12.013 12.013 0 0 0 12 12zm0-2a10.011 10.011 0 0 1 -9.953-9.079c2.287-.266 7.71-1.449 9.953-6.643 2.243 5.194 7.666 6.377 9.953 6.643a10.011 10.011 0 0 1 -9.953 9.079zm9.94-11.078c-2.468-.3-8.363-1.769-8.9-8.867a10.017 10.017 0 0 1 8.9 8.867zm-10.983-8.867c-.534 7.1-6.429 8.565-8.9 8.867a10.017 10.017 0 0 1 8.9-8.867z"/><path d="m29 39h2v2h-2z"/><path d="m33 39h2v2h-2z"/><path d="m32 44c-4.119 0-5-3.117-5.032-3.25l-1.938.492c.411 1.646 2.397 4.758 6.97 4.758s6.559-3.112 6.97-4.758l-1.94-.484c-.008.032-.859 3.242-5.03 3.242z"/><path d="m20 26h3v2h-3z"/><path d="m12 34h4v2h-4z"/><path d="m41 26h11v2h-11z"/><path d="m45 30h7v2h-7z"/><path d="m46 34h6v2h-6z"/><path d="m22 56h21v2h-21z"/><path d="m22 52h13v2h-13z"/><path d="m37 52h4v2h-4z"/><path d="m12 46h7v2h-7z"/><path d="m12 42h5v2h-5z"/><path d="m43 48h9v2h-9z"/><path d="m46 44h6v2h-6z"/><path d="m48 39h4v2h-4z"/><path d="m19 12h.279l1.772 5.316a1 1 0 0 0 1.9 0l1.77-5.316h.279v8h2v-9a1 1 0 0 0 -1-1h-2a1 1 0 0 0 -.949.684l-1.051 3.154-1.051-3.154a1 1 0 0 0 -.949-.684h-2a1 1 0 0 0 -1 1v9h2z"/><path d="m31.469 18h4.062l.493 2.217 1.952-.434-2-9a1 1 0 0 0 -.976-.783h-3a1 1 0 0 0 -.976.783l-2 9 1.952.434zm1.331-6h1.4l.889 4h-3.176z"/><path d="m41 20h6a1 1 0 0 0 1-1v-4a1 1 0 0 0 -1-1h-3v2h2v2h-4v-6h6v-2h-7a1 1 0 0 0 -1 1v8a1 1 0 0 0 1 1z"/><path d="m18 26h-6v6h6zm-2 4h-2v-2h2z"/><path d="m12 38h4v2h-4z"/></g></svg>
